<?xml version="1.0" encoding="utf-8"?>
<!DOCTYPE svg PUBLIC "-//W3C//DTD SVG 1.1//EN" "http://www.w3.org/Graphics/SVG/1.1/DTD/svg11.dtd">
<svg xmlns="http://www.w3.org/2000/svg" width="48px" height="64px" viewBox="0 0 48 64" fill="#000000">
  <path d="M 17.75,19.875 A 19.909,22.143 0.262 0 0 17.5,20
                          A 16.292,22.039 0.087 0 0 6.75,24.313
                          C 9.423,28.565 12.851,32 17,32
                          C 19.967,32 24.336,28.911 28.875,24.688
                          A 19.909,22.143 0.262 0 0 17.75,19.875
           Z
           M 1.625,33.063 A 16.292,22.039 0.087 0 0 15.5,64
                          A 19.909,22.143 0.262 0 0 35.125,34.25
                          C 29.378,42.404 22.474,48 16,48
                          C 12.903,48 5.030,47.921 1.625,33.063
           Z
           M 0,8 C 0,44 14,44 16,44
                 C 26,44 46,22 48,0
                 C 48,4 26,38 16,38
                 C 6,38 0,8 0,8
           Z " />
</svg>
