<?xml version="1.0" encoding="utf-8"?> <!-- Generator: IcoMoon.io --> <!DOCTYPE svg PUBLIC "-//W3C//DTD SVG 1.1//EN" "http://www.w3.org/Graphics/SVG/1.1/DTD/svg11.dtd"> <svg width="512" height="512" viewBox="0 0 512 512" xmlns="http://www.w3.org/2000/svg" xmlns:xlink="http://www.w3.org/1999/xlink"><g><line x1="32" x2="32" y1="0" y2="512" stroke="#B35047"></line><line x1="64" x2="64" y1="0" y2="512" stroke="#B35047"></line><line x1="96" x2="96" y1="0" y2="512" stroke="#B35047"></line><line x1="128" x2="128" y1="0" y2="512" stroke="#B35047"></line><line x1="160" x2="160" y1="0" y2="512" stroke="#B35047"></line><line x1="192" x2="192" y1="0" y2="512" stroke="#B35047"></line><line x1="224" x2="224" y1="0" y2="512" stroke="#B35047"></line><line x1="256" x2="256" y1="0" y2="512" stroke="#B35047"></line><line x1="288" x2="288" y1="0" y2="512" stroke="#B35047"></line><line x1="320" x2="320" y1="0" y2="512" stroke="#B35047"></line><line x1="352" x2="352" y1="0" y2="512" stroke="#B35047"></line><line x1="384" x2="384" y1="0" y2="512" stroke="#B35047"></line><line x1="416" x2="416" y1="0" y2="512" stroke="#B35047"></line><line x1="448" x2="448" y1="0" y2="512" stroke="#B35047"></line><line x1="480" x2="480" y1="0" y2="512" stroke="#B35047"></line><line x1="0" x2="512" y1="32" y2="32" stroke="#B35047"></line><line x1="0" x2="512" y1="64" y2="64" stroke="#B35047"></line><line x1="0" x2="512" y1="96" y2="96" stroke="#B35047"></line><line x1="0" x2="512" y1="128" y2="128" stroke="#B35047"></line><line x1="0" x2="512" y1="160" y2="160" stroke="#B35047"></line><line x1="0" x2="512" y1="192" y2="192" stroke="#B35047"></line><line x1="0" x2="512" y1="224" y2="224" stroke="#B35047"></line><line x1="0" x2="512" y1="256" y2="256" stroke="#B35047"></line><line x1="0" x2="512" y1="288" y2="288" stroke="#B35047"></line><line x1="0" x2="512" y1="320" y2="320" stroke="#B35047"></line><line x1="0" x2="512" y1="352" y2="352" stroke="#B35047"></line><line x1="0" x2="512" y1="384" y2="384" stroke="#B35047"></line><line x1="0" x2="512" y1="416" y2="416" stroke="#B35047"></line><line x1="0" x2="512" y1="448" y2="448" stroke="#B35047"></line><line x1="0" x2="512" y1="480" y2="480" stroke="#B35047"></line><rect x="0" y="0" width="512" height="512" fill="none" stroke="#B35047"></rect></g><path d="M 64,64l 416,0 L 480,400 c0,26.511 -21.49,48 -48,48c -26.509,0, -48-21.489, -48-48l 0-304 L 0,96 L 0,416 C 0,451.199, 28.8,480, 64,480l 384,0 c 35.2,0, 64-28.801, 64-64l 0-384 L 64,32 L 64,64 zM 416,384L 416,96L 448,96L 448,384z" ></path></svg>