<?xml version="1.0" encoding="utf-8"?> <!-- Generator: IcoMoon.io --> <!DOCTYPE svg PUBLIC "-//W3C//DTD SVG 1.1//EN" "http://www.w3.org/Graphics/SVG/1.1/DTD/svg11.dtd"> <svg width="448" height="448" viewBox="0 0 448 448" xmlns="http://www.w3.org/2000/svg" xmlns:xlink="http://www.w3.org/1999/xlink" fill="#000000"><path d="M 416,376l0-192 q-8,9 -17.25,16.5q-67,51.5 -106.5,84.5q-12.75,10.75 -20.75,16.75t-21.625,12.125t-25.625,6.125l-0.25,0 l-0.25,0 q-12,0 -25.625-6.125t-21.625-12.125t-20.75-16.75q-39.5-33 -106.5-84.5q-9.25-7.5 -17.25-16.5l0,192 q0,3.25 2.375,5.625t 5.625,2.375l 368,0 q 3.25,0 5.625-2.375t 2.375-5.625zM 416,113.25l0-2.75 l0-3.375 t-0.125-3.25 t-0.75-3.125t-1.375-2.25t-2.25-1.875t-3.5-0.625l-368,0 q-3.25,0 -5.625,2.375t-2.375,5.625q0,42 36.75,71q 48.25,38 100.25,79.25q 1.5,1.25 8.75,7.375t 11.5,9.375t 11.125,7.875t 12.625,6.875t 10.75,2.25l 0.25,0 l 0.25,0 q 5,0 10.75-2.25t 12.625-6.875t 11.125-7.875t 11.5-9.375t 8.75-7.375q 52-41.25 100.25-79.25q 13.5-10.75 25.125-28.875t 11.625-32.875z M 448,104l0,272 q0,16.5 -11.75,28.25t-28.25,11.75l-368,0 q-16.5,0 -28.25-11.75t-11.75-28.25l0-272 q0-16.5 11.75-28.25t 28.25-11.75l 368,0 q 16.5,0 28.25,11.75t 11.75,28.25z" ></path></svg>