<?xml version="1.0" encoding="utf-8"?> <!-- Generator: IcoMoon.io --> <!DOCTYPE svg PUBLIC "-//W3C//DTD SVG 1.1//EN" "http://www.w3.org/Graphics/SVG/1.1/DTD/svg11.dtd"> <svg width="448" height="448" viewBox="0 0 448 448" xmlns="http://www.w3.org/2000/svg" xmlns:xlink="http://www.w3.org/1999/xlink" fill="#000000"><path d="M 224,96q-51,0 -95.375,17.375t-70.5,46.875t-26.125,63.75q0,28 17.875,53.375t 50.375,43.875l 21.75,12.5l-6.75,24q-6,22.75 -17.5,43q 38-15.75 68.75-42.75l 10.75-9.5l 14.25,1.5q 17.25,2 32.5,2q 51,0 95.375-17.375t 70.5-46.875t 26.125-63.75t-26.125-63.75t-70.5-46.875t-95.375-17.375zM 448,224 q0,43.5 -30,80.375t-81.5,58.25t-112.5,21.375q-17.5,0 -36.25-2q-49.5,43.75 -115,60.5q-12.25,3.5 -28.5,5.5l-1.25,0 q-3.75,0 -6.75-2.625t-4-6.875l0-0.25 q-0.75-1 -0.125-3t 0.5-2.5t 1.125-2.375l 1.5-2.25t 1.75-2.125t 2-2.25q 1.75-2 7.75-8.625t 8.625-9.5t 7.75-9.875t 8.125-12.75t 6.75-14.75t 6.5-19q-39.25-22.25 -61.875-55t-22.625-70.25q0-43.5 30-80.375 t 81.5-58.25t 112.5-21.375t 112.5,21.375t 81.5,58.25t 30,80.375z" ></path></svg>