<?xml version="1.0" encoding="utf-8"?> <!-- Generator: IcoMoon.io --> <!DOCTYPE svg PUBLIC "-//W3C//DTD SVG 1.1//EN" "http://www.w3.org/Graphics/SVG/1.1/DTD/svg11.dtd"> <svg xmlns="http://www.w3.org/2000/svg" version="1.1" width="64px" height="64px" viewBox="0 0 64 64" xmlns:xlink="http://www.w3.org/1999/xlink" fill="#000000"> <path d="M 4,0 L 0,12 L 0,56 L 16,56 L 16,64 L 26,64 L 34,56 L 46,56 L 64,38 L 64,0 L 4,0 z M 10,6 L 58,6 L 58,36 L 48,46 L 32,46 L 24,54 L 24,46 L 10,46 L 10,6 z M 26,16 L 26,34 L 32,34 L 32,16 L 26,16 z M 42,16 L 42,34 L 48,34 L 48,16 L 42,16 z " ></path></svg>